<svg width="20" height="20" viewBox="0 0 20 20" fill="none" xmlns="http://www.w3.org/2000/svg">
<g clip-path="url(#clip0_1625_5938)">
<path d="M0.949707 10.0099C0.949707 5.01932 5.00956 0.959473 10.0003 0.959473C14.9909 0.959473 19.0507 5.01932 19.0507 10.0099C19.0507 15.0007 14.9909 19.0605 10.0003 19.0605C5.00956 19.0605 0.949707 15.0007 0.949707 10.0099ZM17.7579 10.0099C17.7579 5.73228 14.2779 2.25238 10.0003 2.25238C5.72256 2.25238 2.24264 5.7323 2.24264 10.0099C2.24264 14.2877 5.72256 17.7676 10.0003 17.7676C14.2779 17.7676 17.7579 14.2877 17.7579 10.0099ZM11.0837 13.6961L14.3212 10.4942C14.5126 10.3054 14.5605 10.0261 14.4653 9.79144C14.4595 9.77664 14.4453 9.765 14.4382 9.75071C14.4085 9.69063 14.3762 9.63046 14.3263 9.58005C14.3258 9.57947 14.3251 9.57947 14.3245 9.57876C14.3238 9.57818 14.3238 9.57745 14.3232 9.57679L11.1128 6.3575C10.8607 6.10467 10.4515 6.10409 10.1988 6.35611C10.072 6.48217 10.0087 6.64839 10.0087 6.81382C10.0087 6.97871 10.0713 7.14417 10.1974 7.27023L12.2842 9.36354H6.12145C5.76397 9.36354 5.47493 9.65316 5.47493 10.01C5.47493 10.3668 5.76395 10.6565 6.12145 10.6565H12.3185L10.1748 12.7769C10.0467 12.903 9.98279 13.0698 9.98279 13.2365C9.98279 13.4007 10.0448 13.565 10.1696 13.691C10.4204 13.945 10.8297 13.9476 11.0837 13.6961Z" fill="#1677FF"/>
</g>
<defs>
<clipPath id="clip0_1625_5938">
<rect width="20" height="20" fill="white"/>
</clipPath>
</defs>
</svg>
