<svg width="20" height="20" viewBox="0 0 20 20" fill="none" xmlns="http://www.w3.org/2000/svg">
<g clip-path="url(#clip0_1625_5938)">
<path d="M19.0503 9.99007C19.0503 14.9807 14.9904 19.0405 9.99971 19.0405C5.00911 19.0405 0.949284 14.9807 0.949284 9.99008C0.949283 4.99934 5.00913 0.93952 9.99971 0.93952C14.9904 0.939494 19.0503 4.99934 19.0503 9.99007ZM2.24214 9.99008C2.24214 14.2677 5.72209 17.7476 9.99969 17.7476C14.2774 17.7476 17.7574 14.2677 17.7574 9.99007C17.7574 5.71235 14.2774 2.23242 9.99969 2.23242C5.72209 2.2324 2.24214 5.71232 2.24214 9.99008ZM8.9163 6.30389L5.67878 9.50583C5.48741 9.69465 5.43954 9.97389 5.53466 10.2086C5.54047 10.2234 5.55469 10.235 5.56176 10.2493C5.59148 10.3094 5.6238 10.3695 5.67365 10.4199C5.67421 10.4205 5.67494 10.4205 5.6755 10.4212C5.6762 10.4218 5.6762 10.4225 5.67681 10.4232L8.88724 13.6425C9.13933 13.8953 9.54853 13.8959 9.80123 13.6439C9.92802 13.5178 9.99133 13.3516 9.99133 13.1862C9.99133 13.0213 9.9287 12.8558 9.80262 12.7298L7.71582 10.6365L13.8786 10.6365C14.236 10.6365 14.5251 10.3468 14.5251 9.99005C14.5251 9.63316 14.2361 9.34353 13.8786 9.34353L7.68153 9.34353L9.82522 7.2231C9.95327 7.09704 10.0172 6.93023 10.0172 6.76353C10.0172 6.59929 9.95517 6.43505 9.83037 6.30899C9.57961 6.055 9.17034 6.05245 8.9163 6.30389Z" fill="#1677FF"/>
</g>
<defs>
<clipPath id="clip0_1625_5938">
<rect width="20" height="20" fill="white" transform="translate(20 20) rotate(180)"/>
</clipPath>
</defs>
</svg>
