<svg width="319" height="319" viewBox="0 0 319 319" fill="none" xmlns="http://www.w3.org/2000/svg">
<g clip-path="url(#clip0_1092_19214)">
<path d="M161.747 140.654C161.481 140.314 161.141 140.039 160.752 139.849C160.363 139.66 159.937 139.562 159.504 139.562C159.072 139.562 158.646 139.66 158.257 139.849C157.868 140.039 157.528 140.314 157.261 140.654L117.386 191.103C117.058 191.523 116.854 192.027 116.798 192.557C116.742 193.087 116.836 193.623 117.07 194.102C117.304 194.581 117.668 194.984 118.121 195.266C118.574 195.548 119.096 195.697 119.629 195.696H145.94V281.997C145.94 283.564 147.222 284.845 148.788 284.845H170.15C171.716 284.845 172.998 283.564 172.998 281.997V195.732H199.379C201.765 195.732 203.082 192.99 201.622 191.139L161.747 140.654Z" fill="#1890ff"/>
<path d="M266.094 107.704C249.788 64.696 208.24 34.1133 159.571 34.1133C110.902 34.1133 69.354 64.6604 53.048 107.668C22.5365 115.679 0 143.485 0 176.524C0 215.865 31.8644 247.729 71.1698 247.729H85.4464C87.0129 247.729 88.2946 246.448 88.2946 244.881V223.52C88.2946 221.953 87.0129 220.671 85.4464 220.671H71.1698C59.1716 220.671 47.8856 215.901 39.4834 207.249C31.1167 198.633 26.6664 187.027 27.058 174.993C27.3785 165.594 30.5827 156.765 36.3859 149.324C42.3316 141.74 50.6626 136.222 59.9193 133.765L73.4127 130.241L78.3615 117.21C81.4233 109.093 85.6956 101.509 91.0716 94.6378C96.379 87.8273 102.666 81.8405 109.727 76.8721C124.36 66.5829 141.592 61.1357 159.571 61.1357C177.551 61.1357 194.782 66.5829 209.415 76.8721C216.5 81.8565 222.766 87.8377 228.071 94.6378C233.447 101.509 237.719 109.128 240.781 117.21L245.694 130.205L259.152 133.765C278.449 138.963 291.942 156.515 291.942 176.524C291.942 188.309 287.349 199.417 279.018 207.748C274.933 211.857 270.072 215.115 264.719 217.334C259.365 219.552 253.625 220.687 247.83 220.671H233.554C231.987 220.671 230.705 221.953 230.705 223.52V244.881C230.705 246.448 231.987 247.729 233.554 247.729H247.83C287.136 247.729 319 215.865 319 176.524C319 143.52 296.535 115.75 266.094 107.704Z" fill="black" fill-opacity="0.45"/>
</g>
<defs>
<clipPath id="clip0_1092_19214">
<rect width="319" height="319" fill="white"/>
</clipPath>
</defs>
</svg>
