<svg width="57" height="26" viewBox="0 0 57 26" fill="none" xmlns="http://www.w3.org/2000/svg">
<path d="M0 14.7317L9 4H57V26H9L0 14.7317Z" fill="#A7B0BE"/>
<path d="M54 4V0L57 4H54Z" fill="#7787A2"/>
<path d="M19.556 9.244H20.444V10.888H24.56V11.728H20.444V13.852H25.196V14.692H21.236C22.04 16.204 23.432 17.548 25.4 18.736L24.8 19.504C22.76 18.064 21.332 16.468 20.54 14.692H20.444V20.164H19.556V14.692H19.448C18.584 16.66 17.132 18.268 15.092 19.54L14.6 18.736C16.52 17.68 17.912 16.336 18.776 14.692H14.804V13.852H19.556V11.728H15.524V10.888H19.556V9.244ZM33.128 15.64C32.912 16.06 32.672 16.42 32.384 16.732L31.88 16.12C32.408 15.544 32.756 14.788 32.936 13.828L33.656 13.96C33.584 14.284 33.512 14.584 33.44 14.86H34.544V13.744H35.384V14.86H37.172V15.64H35.384V17.104H37.424V17.884H35.384V20.236H34.544V17.884H31.928V17.104H34.544V15.64H33.128ZM33.62 10.684H32.024V9.916H37.028C37.028 11.548 36.92 12.52 36.704 12.844C36.488 13.156 36.128 13.324 35.612 13.324C35.324 13.324 34.988 13.3 34.604 13.276L34.4 12.556C34.808 12.58 35.156 12.604 35.432 12.616C35.768 12.604 35.972 12.496 36.056 12.292C36.128 12.088 36.176 11.548 36.2 10.684H34.436C34.316 11.236 34.136 11.728 33.908 12.148C33.596 12.652 33.128 13.12 32.516 13.528L32.012 12.868C32.552 12.556 32.96 12.172 33.224 11.74C33.404 11.428 33.536 11.08 33.62 10.684ZM27.956 15.016V16.312C27.956 16.408 27.944 16.492 27.944 16.588H29.048V15.016H27.956ZM27.908 17.32C27.8 18.508 27.524 19.504 27.092 20.296L26.504 19.756C26.96 18.868 27.2 17.728 27.212 16.36V12.676C27.164 12.724 27.128 12.76 27.092 12.808L26.564 12.172C27.284 11.404 27.872 10.396 28.34 9.148L29.12 9.328C29.024 9.592 28.916 9.856 28.82 10.096H30.956V10.696C30.692 11.224 30.416 11.68 30.152 12.052H31.592V19.252C31.592 19.816 31.292 20.104 30.716 20.104H30.032L29.828 19.384C30.056 19.408 30.272 19.432 30.464 19.432C30.728 19.432 30.86 19.276 30.86 18.988V17.32H29.744V20.032H29.048V17.32H27.908ZM29.276 12.052C29.528 11.692 29.78 11.272 30.044 10.804H28.484C28.244 11.26 27.98 11.668 27.716 12.052H29.276ZM30.86 16.588V15.016H29.744V16.588H30.86ZM30.86 14.296V12.796H29.744V14.296H30.86ZM29.048 12.796H27.956V14.296H29.048V12.796ZM41.312 13.924V20.164H40.46V14.032C40.052 15.256 39.512 16.36 38.84 17.356L38.468 16.42C39.38 15.244 40.028 13.888 40.412 12.376H38.708V11.548H40.46V9.196H41.312V11.548H42.932V12.376H41.312V13.024C41.876 13.612 42.452 14.272 43.04 15.016L42.572 15.7C42.092 14.956 41.672 14.368 41.312 13.924ZM48.62 9.244L49.052 10.012C47.684 10.504 46.16 10.792 44.48 10.876V13.036H49.352V13.864H47.564V20.176H46.7V13.864H44.48V13.996C44.396 16.552 43.784 18.592 42.656 20.104L42.044 19.468C43.028 18.148 43.568 16.324 43.64 13.996V10.144C45.488 10.096 47.144 9.796 48.62 9.244Z" fill="white"/>
</svg>
