<svg width="10" height="10" viewBox="0 0 10 10" fill="none" xmlns="http://www.w3.org/2000/svg">
<g id="icon_menu">
<path id="Union" fill-rule="evenodd" clip-rule="evenodd" d="M1.39291 2.70251L4.80885 0.730261C4.86595 0.69729 4.93074 0.679932 4.99668 0.679932C5.06262 0.679932 5.1274 0.69729 5.18451 0.730261L8.60045 2.70251C8.65755 2.73548 8.70498 2.7829 8.73795 2.84001C8.77092 2.89712 8.78828 2.9619 8.78828 3.02784V6.97234C8.78828 7.03828 8.77092 7.10306 8.73795 7.16016C8.70498 7.21727 8.65755 7.26469 8.60045 7.29766L5.18451 9.26991C5.1274 9.30288 5.06262 9.32024 4.99668 9.32024C4.93074 9.32024 4.86595 9.30288 4.80885 9.26991L1.39291 7.29766C1.3358 7.26469 1.28838 7.21727 1.25541 7.16016C1.22244 7.10306 1.20508 7.03828 1.20508 6.97234V3.02784C1.20508 2.9619 1.22244 2.89712 1.25541 2.84001C1.28838 2.7829 1.3358 2.73548 1.39291 2.70251ZM8.03695 3.2446L4.99668 1.48948L1.95604 3.2446V6.7552L4.99668 8.51031L8.03695 6.7552V3.2446ZM7.42881 3.76996C7.44958 3.68028 7.43671 3.58609 7.39262 3.50528L7.39225 3.50566C7.36866 3.4623 7.33675 3.42403 7.29836 3.39301C7.25997 3.36199 7.21584 3.33885 7.1685 3.32489C7.12115 3.31094 7.07153 3.30645 7.02245 3.31168C6.97337 3.31691 6.9258 3.33177 6.88247 3.35539L4.99625 4.38434L3.11003 3.35539L3.0702 3.33661C2.98123 3.30055 2.88182 3.29994 2.79241 3.33488C2.70299 3.36982 2.63034 3.43767 2.58938 3.5245C2.54842 3.61132 2.54225 3.71054 2.57215 3.80177C2.60204 3.893 2.66573 3.96932 2.75014 4.01506L4.62096 5.03537V7.06623L4.62359 7.11018C4.63489 7.20526 4.68208 7.29243 4.75551 7.35389C4.82893 7.41534 4.92305 7.44644 5.01864 7.44083C5.11422 7.43522 5.20406 7.39332 5.26979 7.3237C5.33552 7.25407 5.37218 7.16198 5.37229 7.06623V5.03537L7.24236 4.01506L7.27992 3.99177C7.35505 3.93857 7.40803 3.85964 7.42881 3.76996Z" fill="#8A92A0"/>
</g>
</svg>
