<svg width="57" height="26" viewBox="0 0 57 26" fill="none" xmlns="http://www.w3.org/2000/svg">
<path d="M0 14.7317L9 4H57V26H9L0 14.7317Z" fill="#F03C4D"/>
<path d="M54 4V0L57 4H54Z" fill="#BD0825"/>
<path d="M21.976 9.448L22.78 9.76C22.588 10.312 22.372 10.828 22.144 11.308H24.568V9.208H25.456V11.308H29.476V12.148H25.456V12.928C25.432 13.504 25.384 14.044 25.3 14.548H30.256V15.376H25.792C26.38 17.104 27.928 18.448 30.436 19.408L29.956 20.164C27.34 19.036 25.708 17.512 25.06 15.568C24.832 16.36 24.508 17.044 24.088 17.62C23.26 18.712 21.904 19.564 20.008 20.176L19.54 19.444C21.412 18.82 22.732 18.016 23.476 17.02C23.788 16.54 24.04 15.988 24.22 15.376H19.756V14.548H24.4C24.496 14.044 24.544 13.504 24.568 12.928V12.148H21.7C21.268 12.856 20.8 13.456 20.284 13.936L19.552 13.3C20.632 12.34 21.436 11.056 21.976 9.448ZM38.572 11.884C38.524 12.016 38.488 12.148 38.44 12.268C38.62 13.876 39.052 15.268 39.724 16.444C40.348 15.172 40.696 13.648 40.744 11.884H38.572ZM37.9 13.552C37.66 14.008 37.408 14.392 37.12 14.716L36.616 14.068C37.492 12.904 38.056 11.26 38.296 9.148L39.148 9.256C39.052 9.904 38.932 10.504 38.8 11.056H42.316V11.884H41.548C41.488 13.996 41.056 15.772 40.24 17.236C40.864 18.076 41.62 18.796 42.532 19.396L42.064 20.212C41.152 19.6 40.384 18.868 39.76 18.016C39.16 18.88 38.404 19.6 37.504 20.2L37.036 19.444C37.948 18.868 38.692 18.136 39.268 17.272C38.62 16.192 38.164 14.956 37.9 13.552ZM36.412 9.676V17.188H35.62V10.48H32.776V17.188H31.984V9.676H36.412ZM35.032 17.536C35.716 18.208 36.292 18.868 36.76 19.528L36.124 20.152C35.728 19.504 35.176 18.82 34.468 18.088L35.032 17.536ZM33.832 11.38H34.588V15.04C34.564 16.432 34.36 17.536 33.964 18.364C33.556 19.144 32.908 19.744 32.02 20.176L31.552 19.432C32.392 19.024 32.992 18.472 33.328 17.8C33.64 17.092 33.808 16.168 33.832 15.04V11.38Z" fill="white"/>
</svg>
