<svg width="57" height="26" viewBox="0 0 57 26" fill="none" xmlns="http://www.w3.org/2000/svg">
<path d="M0 14.7317L9 4H57V26H9L0 14.7317Z" fill="#1776FF"/>
<path d="M54 4V0L57 4H54Z" fill="#0958D9"/>
<path d="M15.536 9.388C16.34 10.012 17.024 10.624 17.576 11.248L16.952 11.86C16.472 11.272 15.8 10.636 14.948 9.952L15.536 9.388ZM22.508 19.984C21.86 19.984 21.152 19.972 20.396 19.96C19.628 19.948 19.016 19.876 18.536 19.744C18.068 19.6 17.648 19.3 17.276 18.868C17.12 18.664 16.964 18.568 16.82 18.568C16.532 18.568 16.064 19.12 15.404 20.224L14.756 19.636C15.392 18.628 15.956 18.016 16.448 17.8V14.152H14.732V13.36H17.252V17.848C17.348 17.92 17.444 18.016 17.54 18.124C17.828 18.472 18.128 18.724 18.464 18.88C18.824 19.048 19.364 19.144 20.06 19.168C20.684 19.18 21.464 19.192 22.388 19.192C22.952 19.192 23.528 19.18 24.116 19.168C24.692 19.156 25.148 19.144 25.46 19.12L25.256 19.984H22.508ZM18.404 11.092H19.82V9.184H20.648V11.092H22.544V9.196H23.384V11.092H24.908V11.896H23.384V14.284H25.292V15.1H23.384V18.544H22.544V15.1H20.408C20.096 16.54 19.472 17.608 18.548 18.304L18.032 17.608C18.788 17.068 19.304 16.228 19.568 15.1H17.984V14.284H19.724C19.784 13.828 19.82 13.348 19.82 12.844V11.896H18.404V11.092ZM20.648 11.896V12.652C20.648 13.228 20.612 13.78 20.552 14.284H22.544V11.896H20.648ZM31.1 9.964H36.848V10.816H31.1V9.964ZM30.776 13.012H37.376V13.864H35.432V19.108C35.432 19.804 35.036 20.152 34.268 20.152H32.504L32.324 19.3C32.9 19.336 33.44 19.36 33.968 19.36C34.352 19.36 34.556 19.204 34.556 18.892V13.864H30.776V13.012ZM29.204 9.304L29.984 9.664C29.312 10.996 28.232 12.172 26.744 13.192L26.492 12.328C27.74 11.44 28.64 10.432 29.204 9.304ZM29.768 12.04L30.548 12.4C30.2 13.072 29.768 13.72 29.24 14.32V20.2H28.388V15.196C27.908 15.628 27.392 16.048 26.816 16.444L26.564 15.58C28.028 14.548 29.096 13.372 29.768 12.04ZM43.556 9.148H44.444V11.308H48.752V16.948H47.888V16.192H44.444V20.284H43.556V16.192H40.124V16.948H39.26V11.308H43.556V9.148ZM40.124 15.352H43.556V12.148H40.124V15.352ZM44.444 15.352H47.888V12.148H44.444V15.352Z" fill="white"/>
</svg>
