<svg width="146" height="36" viewBox="0 0 146 36" fill="none" xmlns="http://www.w3.org/2000/svg">
<path d="M3.25475 5.95947L16.4826 6.21471L15.2791 8.78931H10.8215L7.48945 17.2123H3.29933L6.31934 8.90029L1.91748 8.78931L3.25475 5.95947Z" fill="#E31430"/>
<path d="M18.3775 6.31494L29.8112 6.65898C29.8112 6.65898 32.4077 10.2434 25.5653 12.3298V12.6294C25.5653 12.6294 26.39 12.1522 27.0586 14.1164C27.3551 14.9301 27.6044 15.7601 27.8052 16.6023H23.0133L21.7652 13.0733L22.6679 10.7872C22.6679 10.7872 25.465 10.8871 25.7659 9.38893C26.0668 7.89078 24.6515 8.34577 24.384 8.27919C24.1166 8.2126 22.1552 8.27919 22.1552 8.27919L18.8121 16.7798H14.165L18.3775 6.31494Z" fill="#E31430"/>
<path d="M28.8633 16.6567H33.2986L39.0934 9.04383L38.8928 16.357H43.4396L42.6818 6.95752H37.199L28.8633 16.6567Z" fill="#E31430"/>
<path d="M49.0677 7.15727L54.2163 6.95752L56.5119 12.4285L58.5067 7.20166H62.5965L59.0527 16.1573H53.8151L51.6197 11.3299L49.6249 16.1573L45.2788 16.357L49.0677 7.15727Z" fill="#E31430"/>
<path d="M62.0617 13.1726H66.1961C66.1961 13.1726 65.9955 14.9593 68.4918 14.7374C70.988 14.5154 70.6425 13.3724 70.5422 13.1726C70.4419 12.9729 69.4279 12.529 66.7533 12.2293C64.0788 11.9297 64.0565 10.2873 64.3574 9.84341C64.6583 9.39951 65.7504 6.95808 73.0831 7.15784C73.0831 7.15784 76.7272 6.90258 76.4263 9.64365L72.0801 9.94328C72.0801 9.94328 72.4813 8.74476 71.2778 8.74476C70.0742 8.74476 68.5809 8.90012 68.5809 9.48828C68.5809 10.0764 69.9851 10.2429 71.8349 10.5314C73.6848 10.82 75.3676 11.3305 75.2784 12.529C75.1893 13.7275 73.5734 16.1024 67.1879 16.3465C60.8024 16.5906 61.9391 13.4168 62.0506 13.1726" fill="#E31430"/>
<path d="M78.8218 7.14674H82.867L82.165 12.3736L91.303 0L90.6009 12.3736L94.1001 7.14674H98.1342L92.0496 16.3576H87.0126L87.202 10.2429L76.6821 24.4587L78.8218 7.14674Z" fill="#E31430"/>
<path d="M95.3481 16.357L99.7389 16.3681L105.422 8.94396V16.357H109.869L109.066 6.95752H103.584L95.3481 16.357Z" fill="#E31430"/>
<path d="M115.663 6.61461L126.539 6.35938C126.881 6.5018 127.171 6.74508 127.371 7.05654C127.57 7.36799 127.669 7.73269 127.653 8.10166C127.81 9.58871 125.904 11.8748 122.917 12.474C122.917 12.474 124.411 12.5739 125.057 16.913H120.165C119.881 15.6277 119.508 14.3633 119.05 13.1288L119.897 10.6985C119.897 10.6985 122.694 10.6985 123.04 9.2558C123.385 7.81314 119.151 8.35691 119.151 8.35691L116.03 16.6467H111.64L115.663 6.61461Z" fill="#E31430"/>
<path d="M0 22.6273C0 22.6273 73.9735 10.8085 145.317 22.6273C145.317 22.6273 58.8177 14.0934 0 22.6273Z" fill="#E31430"/>
<path d="M140.124 6.01465C139.723 6.01465 131.209 6.35867 131.209 6.35867L127.019 16.9012L131.309 17.101L132.903 13.2724C134.2 13.3458 135.5 13.3161 136.792 13.1836C138.063 13.0934 139.277 12.6206 140.272 11.8279C141.267 11.0351 141.997 9.95979 142.364 8.7446C142.81 6.65829 140.559 6.01465 140.135 6.01465M133.705 10.8864L134.697 8.3673C134.697 8.3673 137.762 7.5128 137.884 9.41045C138.007 11.3081 134.318 10.8864 133.705 10.8864Z" fill="#E31430"/>
<path d="M24.3602 31.4612C26.1098 31.4612 27.2688 31.4612 27.8371 31.4612V32.2714C27.2688 32.2714 26.1098 32.2714 24.3602 32.2714V33.2812C25.9761 33.2812 27.0124 33.2812 27.5028 33.2812V34.0469C27.0124 34.0469 25.9761 34.0469 24.3602 34.0469V35.1567H27.0347C27.5139 35.1567 28.0488 35.1567 28.6395 35.0679V35.9113C28.0488 35.9113 27.5251 35.9113 27.0347 35.9113H20.7161C20.1652 35.9126 19.6147 35.9422 19.0668 36.0001V34.968L20.7161 35.0568H23.5355V33.9471C22.0868 33.9471 21.1619 33.9471 20.7272 33.9471V33.1813C21.1619 33.1813 22.0868 33.1813 23.5355 33.1813V32.1715H20.7718C20.5956 32.3536 20.4352 32.5504 20.2926 32.7596C20.078 33.0563 19.8435 33.3381 19.5906 33.6031L18.8662 33.0149C19.2775 32.6581 19.6509 32.2602 19.9806 31.8275C20.3142 31.3981 20.5983 30.9328 20.8276 30.4403C21.1519 30.6235 21.4911 30.7794 21.8416 30.9064C21.6302 31.0713 21.4327 31.2532 21.251 31.4502H23.5355C23.5355 31.1172 23.5355 30.7732 23.5355 30.4403H24.505C24.505 30.7732 24.505 31.1172 24.505 31.4502M20.1923 28.2208C20.1923 27.5106 20.1923 26.9002 20.1923 26.3564H27.6031C27.6031 26.9002 27.6031 27.4662 27.6031 28.2208C27.6031 28.9754 27.6031 29.5081 27.6031 29.9853H20.1923C20.1923 29.5081 20.1923 28.8756 20.1923 28.2208ZM26.6335 27.0334H21.0616V27.8324H26.6335V27.0334ZM26.6335 28.5093H21.0616V29.3083H26.6335V28.5093Z" fill="#070002"/>
<path d="M54.1487 26.5341C54.4273 26.5341 54.7505 26.5341 55.1182 26.5341V27.1999C54.7505 27.1999 54.4273 27.1999 54.1487 27.1999H53.8478V29.2308C54.249 29.2308 54.6836 29.2308 55.1628 29.2308V29.9854H53.8478V32.3824C54.2865 32.2574 54.712 32.0902 55.1182 31.883C55.1039 32.1492 55.1039 32.4159 55.1182 32.6821C54.2713 32.9928 53.6249 33.2147 53.1903 33.359C52.7083 33.5126 52.2357 33.6941 51.775 33.9028C51.6502 33.5994 51.5089 33.303 51.3516 33.015C51.9259 32.9373 52.4926 32.811 53.0454 32.6377V29.9854C52.591 29.982 52.1369 30.0079 51.6859 30.0631V29.264C52.1093 29.264 52.5662 29.264 53.0454 29.264V27.1999H52.6665C52.2988 27.1999 51.931 27.1999 51.5521 27.1999V26.4453C51.9199 26.4453 52.2654 26.4453 52.6108 26.4453L54.1487 26.5341ZM59.7207 26.5341C60.1441 26.5341 60.6233 26.5341 61.1582 26.5341V27.3331C60.679 27.3331 60.1999 27.3331 59.7207 27.3331H58.9072C58.662 28.232 58.4837 28.8534 58.4057 29.1864V34.3356C58.4057 34.9015 58.4057 35.4453 58.4057 35.8559H57.5142C57.5142 35.4342 57.5142 34.9237 57.5142 34.3356V31.0063C56.9662 32.0917 56.2349 33.0753 55.3522 33.9139C55.1172 33.7045 54.8592 33.5221 54.5833 33.3701C55.0047 33.0535 55.3798 32.68 55.6977 32.2603C56.0864 31.7763 56.4331 31.2603 56.7341 30.7178C57.0461 30.201 57.2967 29.6499 57.4807 29.0754C57.6367 28.5649 57.7816 27.9657 57.9265 27.3442H56.8567C56.4109 27.3442 55.9429 27.3442 55.4637 27.3442V26.5452C55.9429 26.5452 56.4109 26.5452 56.8567 26.5452L59.7207 26.5341ZM61.4145 32.3047L60.601 32.8152C60.1776 32.0606 59.8544 31.4946 59.6092 31.1284C59.364 30.7622 59.0854 30.3627 58.74 29.941C58.991 29.8104 59.2203 29.6419 59.4198 29.4416C60.3001 30.6179 60.9576 31.5723 61.4145 32.3047Z" fill="#070002"/>
<path d="M88.4168 29.9078C88.0457 29.8835 87.6735 29.8835 87.3024 29.9078H86.8789V34.4244C86.8789 34.7943 86.8789 35.2715 86.8789 35.856H85.9986C85.9986 35.2641 85.9986 34.7869 85.9986 34.4244V31.639C85.8091 32.0829 85.6085 32.4935 85.4079 32.8597C85.2073 33.2259 84.9287 33.6698 84.561 34.2136C84.3604 33.9805 84.1487 33.7586 83.9258 33.5366C84.3958 33.0102 84.7999 32.4288 85.1293 31.8054C85.4496 31.1977 85.7144 30.5626 85.9205 29.9078H85.6197C85.1182 29.9078 84.6167 29.9078 84.1375 29.9078V29.0977C84.6167 29.0977 85.1182 29.0977 85.6197 29.0977H85.9986V27.4109C85.6642 27.4663 85.1962 27.5662 84.6056 27.7105C84.4929 27.4545 84.3508 27.2124 84.1821 26.9892C84.6243 26.9348 85.0632 26.857 85.4971 26.7561L86.9346 26.4454C87.2451 26.3684 87.5447 26.2528 87.8262 26.1014C87.9694 26.3854 88.1372 26.6565 88.3276 26.9115C88.0643 26.94 87.8036 26.9882 87.5476 27.0557C87.3061 27.121 87.0603 27.1692 86.8121 27.2V29.0977H87.269C87.64 29.1234 88.0123 29.1234 88.3834 29.0977L88.4168 29.9078ZM88.1271 30.9176C88.3499 31.1396 88.584 31.3948 88.8403 31.6723C88.6008 31.8571 88.3737 32.0572 88.1605 32.2715C87.8452 31.7637 87.4712 31.2943 87.0461 30.8732C87.2677 30.7363 87.4546 30.5502 87.5921 30.3295C87.737 30.4959 87.9153 30.6957 88.1493 30.9176M91.5148 27.2C91.5148 26.6451 91.5148 26.2456 91.5148 26.0237H92.4398C92.4398 26.2123 92.4398 26.5564 92.4398 27.0336V31.761C93.1641 31.6168 93.6322 31.5169 93.8327 31.4614L93.9553 32.2271C93.5319 32.2826 93.0304 32.3825 92.4398 32.5157V34.1248C92.4398 34.6797 92.4398 35.2345 92.4398 35.7672H91.5148C91.5148 35.2345 91.5148 34.6575 91.5148 34.1248V32.7487C90.8573 32.8597 90.289 32.9707 89.7986 33.0705C89.2756 33.1764 88.7585 33.3098 88.2496 33.47L87.9487 32.6266L91.5148 31.9941V27.2ZM90.0327 30.1075C90.2778 30.3406 90.601 30.6624 91.0022 31.0841C90.7638 31.2662 90.5368 31.4626 90.3224 31.6723C89.8368 31.0517 89.3 30.4727 88.7177 29.9411C88.8848 29.7746 89.052 29.597 89.2192 29.3973L90.0327 30.1075ZM90.1998 27.4552C90.4561 27.7327 90.7904 28.1433 91.2139 28.676C90.9598 28.8275 90.7176 28.9982 90.4896 29.1864C90.2165 28.776 89.9226 28.3797 89.6092 27.999C89.3752 27.7549 89.1969 27.544 89.052 27.3665C89.2756 27.2342 89.4753 27.0654 89.6426 26.8671L90.1998 27.4552Z" fill="#070002"/>
<path d="M120.187 30.7839L118.962 31.3831V34.5459C118.985 34.687 118.969 34.8318 118.916 34.9648C118.863 35.0977 118.775 35.2138 118.661 35.3005C118.247 35.5352 117.787 35.679 117.312 35.7222C117.238 35.4016 117.121 35.092 116.967 34.8012C117.535 34.8012 117.881 34.8012 118.003 34.6458C118.067 34.5908 118.118 34.5226 118.153 34.4459C118.187 34.3692 118.205 34.286 118.204 34.2019V31.7605C117.751 31.9572 117.312 32.1833 116.889 32.4374C116.807 32.1438 116.663 31.8713 116.465 31.6384C117.06 31.454 117.641 31.2278 118.204 30.9614V28.8862C117.602 28.8862 117.089 28.8862 116.722 28.8862V28.1316C117.112 28.1316 117.602 28.1316 118.204 28.1316C118.204 27.1106 118.204 26.3671 118.204 25.9121H119.051C119.051 26.3338 119.051 27.0219 119.051 28.1316C119.363 28.1316 119.742 28.1316 120.165 28.1316V28.8862C119.708 28.8862 119.329 28.8862 119.051 28.8862V30.6174C119.438 30.4531 119.811 30.2563 120.165 30.0293C120.165 30.229 120.232 30.4842 120.288 30.7839M120.756 29.9849C121.346 29.9849 122.037 29.9849 122.829 29.9849V28.3092H121.859C121.346 28.3092 120.923 28.3092 120.589 28.3092V27.5434C121.012 27.5434 121.402 27.5434 121.77 27.5434H122.717C122.717 27.1217 122.717 26.6002 122.717 25.9898H123.609C123.609 26.4892 123.609 27.0108 123.609 27.5434H125.091C125.392 27.5434 125.748 27.5434 126.205 27.5434V28.3092C125.804 28.3092 125.447 28.3092 125.091 28.3092H123.609V29.996H125.759C125.593 30.6327 125.37 31.253 125.091 31.8492C124.771 32.5373 124.355 33.1763 123.854 33.7469C124.286 34.0747 124.757 34.3469 125.258 34.557C125.685 34.7312 126.124 34.8722 126.573 34.9787C126.373 35.2252 126.201 35.4932 126.06 35.7777C125.042 35.4467 124.094 34.9313 123.263 34.2574C122.355 34.8947 121.356 35.3923 120.299 35.7333C120.101 35.4566 119.889 35.1899 119.664 34.9343C120.141 34.8613 120.608 34.7347 121.057 34.557C121.618 34.334 122.158 34.0629 122.673 33.7469C122.023 32.8146 121.547 31.7733 121.268 30.6729H120.722L120.756 29.9849ZM123.297 33.2364C123.613 32.9302 123.877 32.574 124.077 32.1822C124.352 31.7015 124.573 31.1915 124.734 30.6618H122.071C122.303 31.5926 122.72 32.4679 123.297 33.2364Z" fill="#070002"/>
</svg>
