<svg width="56" height="25" viewBox="0 0 56 25" fill="none" xmlns="http://www.w3.org/2000/svg">
<path d="M9 4H56V24H9L1.20414 15.3379C0.519589 14.5773 0.519588 13.4227 1.20414 12.6621L9 4Z" fill="#F6D2A8"/>
<path d="M56 4.07447L53 0.5V4.07447H56Z" fill="#E9A659"/>
<path d="M15.772 8.052L16.852 8.568C16.252 9.888 15.232 11.076 13.768 12.156L13.396 10.956C14.464 10.14 15.256 9.168 15.772 8.052ZM16.204 10.824L17.272 11.328C17.008 11.928 16.672 12.516 16.264 13.068V19.176H15.052V14.448C14.68 14.796 14.284 15.132 13.876 15.456L13.504 14.268C14.704 13.296 15.604 12.144 16.204 10.824ZM20.26 8.124H21.472V9.3H24.028V10.44H21.472V11.58H24.52V12.732H17.296V11.58H20.26V10.44H17.728V9.3H20.26V8.124ZM17.332 13.836H21.844V13.08H23.092V13.836H24.352V15H23.092V17.736C23.092 18.66 22.636 19.128 21.748 19.128H20.044L19.756 17.94C20.308 17.988 20.824 18.012 21.304 18.012C21.664 18.012 21.844 17.808 21.844 17.424V15H17.332V13.836ZM18.952 15.24C19.6 15.888 20.104 16.464 20.452 16.968L19.48 17.652C19.108 17.112 18.604 16.512 17.98 15.852L18.952 15.24ZM35.392 19.176C34.792 19.164 34.36 18.816 34.072 18.144C33.856 17.628 33.712 16.716 33.664 15.408L32.968 16.452C32.608 16.116 32.272 15.828 31.936 15.564C31.516 17.136 30.772 18.372 29.704 19.272L28.756 18.444C29.812 17.568 30.496 16.332 30.832 14.736C30.376 14.424 29.908 14.16 29.452 13.92L30.148 12.912C30.448 13.068 30.736 13.236 31.024 13.404C31.048 13.068 31.072 12.732 31.072 12.396V11.268H29.68V10.044H31.072V8.16H32.332V10.044H34.876V14.004C34.876 15.564 34.912 16.572 34.984 17.004C35.032 17.436 35.128 17.652 35.26 17.652C35.332 17.652 35.404 17.436 35.476 17.028C35.524 16.692 35.572 16.308 35.62 15.876L36.664 16.38C36.496 17.508 36.316 18.252 36.1 18.612C35.884 18.984 35.656 19.176 35.392 19.176ZM32.332 11.268V12.396C32.32 13.032 32.284 13.632 32.212 14.184C32.716 14.544 33.208 14.94 33.664 15.348C33.64 14.928 33.64 14.484 33.64 14.004V11.268H32.332ZM27.016 19.14H25.816L25.54 17.928C25.9 17.976 26.236 18 26.572 18C26.836 18 26.98 17.856 26.98 17.592V15.144C26.548 15.288 26.104 15.432 25.672 15.564L25.36 14.364C25.912 14.244 26.452 14.088 26.98 13.92V11.52H25.588V10.308H26.98V8.184H28.24V10.308H29.236V11.52H28.24V13.44C28.6 13.272 28.96 13.104 29.296 12.936V14.184C28.936 14.352 28.588 14.508 28.24 14.652V17.916C28.24 18.732 27.832 19.14 27.016 19.14ZM42.016 8.772H47.92V10.008H42.016V8.772ZM41.728 11.748H48.436V12.984H46.588V18.012C46.588 18.804 46.144 19.2 45.256 19.2H43.516L43.24 17.976C43.792 18.024 44.32 18.06 44.824 18.06C45.148 18.06 45.316 17.94 45.316 17.7V12.984H41.728V11.748ZM39.928 8.208L41.068 8.748C40.432 10.056 39.34 11.244 37.792 12.312L37.408 11.052C38.536 10.248 39.376 9.3 39.928 8.208ZM40.492 10.968L41.62 11.496C41.308 12.12 40.912 12.72 40.432 13.296V19.248H39.196V14.532C38.788 14.868 38.344 15.204 37.888 15.528L37.504 14.292C38.848 13.356 39.844 12.24 40.492 10.968Z" fill="white"/>
</svg>
