<svg width="57" height="26" viewBox="0 0 57 26" fill="none" xmlns="http://www.w3.org/2000/svg">
<path d="M0 14.7317L9 4H57V26H9L0 14.7317Z" fill="#3DC27F"/>
<path d="M54 4V0L57 4H54Z" fill="#0F8F57"/>
<path d="M27.928 9.16C28.504 9.592 28.996 10.036 29.404 10.48L28.852 11.032H30.316V11.86H26.62C26.704 13.348 26.86 14.524 27.076 15.388C27.148 15.688 27.232 15.964 27.316 16.228C27.916 15.268 28.396 14.14 28.768 12.856L29.548 13.192C29.068 14.776 28.444 16.12 27.676 17.2C27.844 17.584 28.024 17.92 28.216 18.196C28.612 18.772 28.936 19.06 29.176 19.06C29.392 19.048 29.596 18.424 29.776 17.188L30.556 17.62C30.268 19.216 29.86 20.02 29.32 20.02C28.816 20.02 28.276 19.66 27.7 18.94C27.484 18.652 27.28 18.316 27.1 17.944C26.26 18.928 25.276 19.66 24.148 20.164L23.668 19.444C24.868 18.904 25.888 18.112 26.716 17.068C26.548 16.624 26.392 16.144 26.26 15.628C25.996 14.62 25.828 13.36 25.732 11.86H21.616V13.852H24.556C24.532 15.88 24.436 17.188 24.28 17.776C24.124 18.292 23.752 18.556 23.152 18.58C22.864 18.58 22.516 18.556 22.132 18.532L21.868 17.752C22.336 17.776 22.732 17.788 23.056 17.788C23.32 17.776 23.488 17.596 23.56 17.26C23.632 16.852 23.668 15.988 23.692 14.668H21.616V15.028C21.568 17.176 21.088 18.904 20.2 20.2L19.54 19.612C20.308 18.508 20.704 16.984 20.74 15.028V11.032H25.696C25.672 10.432 25.66 9.82 25.66 9.172H26.548C26.548 9.844 26.56 10.456 26.584 11.032H28.828C28.468 10.6 27.988 10.156 27.376 9.688L27.928 9.16ZM33.352 11.368H31.624V10.54H35.956V11.368H34.228V16.876C34.864 16.696 35.488 16.492 36.1 16.252V17.116C34.732 17.62 33.268 18.028 31.708 18.364L31.492 17.5C32.116 17.392 32.74 17.26 33.352 17.116V11.368ZM38.164 9.232H39.052V11.656H42.1C42.1 15.4 42.04 17.716 41.92 18.604C41.776 19.588 41.092 20.092 39.88 20.092C39.664 20.092 39.304 20.068 38.788 20.044L38.584 19.24C39.028 19.264 39.412 19.276 39.748 19.276C40.528 19.276 40.984 18.928 41.104 18.244C41.176 17.62 41.224 15.7 41.248 12.496H39.052C38.992 16.024 38.032 18.604 36.184 20.248L35.476 19.636C37.228 18.148 38.116 15.76 38.164 12.496H36.256V11.656H38.164V9.232Z" fill="white"/>
</svg>
