<svg width="20" height="20" viewBox="0 0 20 20" fill="none" xmlns="http://www.w3.org/2000/svg">
<g id="icons_turnback" clip-path="url(#clip0_1850_14373)">
<g id="Group 237236">
<g id="Vector (Stroke)">
<path d="M18.5 10C18.5 14.6916 14.6916 18.5 10 18.5C5.30843 18.5 1.5 14.6916 1.5 10C1.5 5.30843 5.30843 1.5 10 1.5C14.6916 1.5 18.5 5.30843 18.5 10ZM20 10C20 4.48 15.52 0 10 0C4.48 0 0 4.48 0 10C0 15.52 4.48 20 10 20C15.52 20 20 15.52 20 10Z" fill="#1677FF"/>
</g>
<g id="Vector (Stroke)_2">
<path d="M5.84668 10C5.84668 9.58579 6.18247 9.25 6.59668 9.25H14.1665C14.5807 9.25 14.9165 9.58579 14.9165 10C14.9165 10.4142 14.5807 10.75 14.1665 10.75H6.59668C6.18247 10.75 5.84668 10.4142 5.84668 10Z" fill="#1677FF"/>
</g>
<g id="Vector (Stroke)_3">
<path d="M10.4603 6.13642C10.7532 6.42931 10.7532 6.90418 10.4603 7.19708L7.65734 10.0001L10.4603 12.8031C10.7532 13.096 10.7532 13.5709 10.4603 13.8637C10.1674 14.1566 9.69257 14.1566 9.39967 13.8637L6.06635 10.5304C5.77346 10.2375 5.77346 9.76264 6.06635 9.46975L9.39967 6.13642C9.69257 5.84353 10.1674 5.84352 10.4603 6.13642Z" fill="#1677FF"/>
</g>
</g>
</g>
<defs>
<clipPath id="clip0_1850_14373">
<rect width="20" height="20" fill="white"/>
</clipPath>
</defs>
</svg>
