<svg width="14" height="14" viewBox="0 0 14 14" fill="none" xmlns="http://www.w3.org/2000/svg">
<g id="icon_warning">
<path id="&#229;&#135;&#143;&#229;&#142;&#187;_9" fill-rule="evenodd" clip-rule="evenodd" d="M7 14C3.13401 14 0 10.866 0 7C0 3.13401 3.13401 0 7 0C10.866 0 14 3.13401 14 7C14 8.85651 13.2625 10.637 11.9497 11.9497C10.637 13.2625 8.85651 14 7 14ZM7 9.33333C6.35567 9.33333 5.83333 9.85567 5.83333 10.5C5.83333 11.1443 6.35567 11.6667 7 11.6667C7.64433 11.6667 8.16667 11.1443 8.16667 10.5C8.16667 9.85567 7.64433 9.33333 7 9.33333ZM5.83333 2.33333C5.83333 1.689 6.35567 1.16667 7 1.16667C7.64433 1.16667 8.16667 1.689 8.16667 2.33333V7C8.16667 7.64433 7.64433 8.16667 7 8.16667C6.35567 8.16667 5.83333 7.64433 5.83333 7V2.33333Z" fill="#3E8EFF"/>
</g>
</svg>
