<svg width="24" height="24" viewBox="0 0 24 24" fill="" xmlns="http://www.w3.org/2000/svg">
<path fill-rule="evenodd" clip-rule="evenodd" d="M13.1376 7.5822C13.1376 7.90926 12.8081 8.17238 12.3998 8.17238C11.9916 8.17238 11.6621 7.90926 11.6621 7.5822V2.59019C11.6621 2.26313 11.9916 2 12.3998 2C12.8081 2 13.1376 2.26313 13.1376 2.59019V7.5822ZM9.37741 9.49045C9.08969 9.77816 8.66919 9.82489 8.43803 9.59373L4.90919 6.0649C4.67804 5.83374 4.72476 5.41323 5.01248 5.12551C5.30019 4.8378 5.7207 4.79108 5.95186 5.02223L9.48069 8.55106C9.71185 8.78222 9.66513 9.20273 9.37741 9.49045ZM8.17238 12.5546C8.17238 12.1464 7.90926 11.8169 7.5822 11.8169H2.59019C2.26313 11.8169 2 12.1464 2 12.5546C2 12.9628 2.26313 13.2924 2.59019 13.2924H7.5822C7.90926 13.2924 8.17238 12.9628 8.17238 12.5546ZM5.02003 18.9998L8.54887 15.471C8.78002 15.2398 9.20053 15.2865 9.48825 15.5742C9.77597 15.862 9.82269 16.2825 9.59153 16.5136L6.0627 20.0425C5.83154 20.2736 5.41103 20.2269 5.12332 19.9392C4.8356 19.6515 4.78888 19.231 5.02003 18.9998ZM16.4055 9.48314L19.9343 5.9543C20.1655 5.72315 20.1187 5.30264 19.831 5.01492C19.5433 4.7272 19.1228 4.68048 18.8916 4.91164L15.3628 8.44047C15.1317 8.67163 15.1784 9.09214 15.4661 9.37985C15.7538 9.66757 16.1743 9.71429 16.4055 9.48314ZM10.8379 10.9536L21.9211 12.8766L21.9187 12.8791L19.1153 15.6825L21.7588 18.326L18.3062 21.7786L15.6627 19.1351L12.7978 22L10.8379 10.9536ZM18.3062 19.9515L19.9366 18.3211L17.2931 15.6776L19.2505 13.7201L12.4265 12.5348L13.6339 19.3367L15.6627 17.308L18.3062 19.9515Z" fill=""/>
</svg>
