<svg xmlns="http://www.w3.org/2000/svg" width="18" height="18" viewBox="0 0 18 18" fill="">
<path d="M2.81689 2.50008C2.81689 2.27907 2.90469 2.06711 3.06097 1.91083C3.21725 1.75455 3.42921 1.66675 3.65023 1.66675H14.4836C14.7046 1.66675 14.9165 1.75455 15.0728 1.91083C15.2291 2.06711 15.3169 2.27907 15.3169 2.50008V17.5001C15.3169 17.7211 15.2291 17.9331 15.0728 18.0893C14.9165 18.2456 14.7046 18.3334 14.4836 18.3334H3.65023C3.42921 18.3334 3.21725 18.2456 3.06097 18.0893C2.90469 17.9331 2.81689 17.7211 2.81689 17.5001V2.50008ZM4.48356 3.33341V16.6667H13.6502V3.33341H4.48356Z" fill=""/>
<path d="M11.9837 7.49992H6.15039V5.83325H11.9837V7.49992ZM10.3171 10.8333H6.15039V9.16659H10.3171V10.8333Z" fill=""/>
<path d="M13.6504 10.0001C13.6504 9.77907 13.7382 9.56711 13.8945 9.41083C14.0507 9.25455 14.2627 9.16675 14.4837 9.16675H17.8171C18.0381 9.16675 18.25 9.25455 18.4063 9.41083C18.5626 9.56711 18.6504 9.77907 18.6504 10.0001V17.5001C18.6504 17.7211 18.5626 17.9331 18.4063 18.0893C18.25 18.2456 18.0381 18.3334 17.8171 18.3334H14.4837C14.2627 18.3334 14.0507 18.2456 13.8945 18.0893C13.7382 17.9331 13.6504 17.7211 13.6504 17.5001V10.0001ZM15.3171 10.8334V16.6667H16.9837V10.8334H15.3171Z" fill=""/>
</svg>